<svg xmlns="http://www.w3.org/2000/svg" width="144.218" height="143.376" viewBox="0 0 171.259 170.26" version="1.2"><path style="fill:#347b98;fill-opacity:1;stroke:none;stroke-width:1.18750358px;stroke-linecap:butt;stroke-linejoin:miter;stroke-opacity:1" d="m.552 170.26-.554-89.13C.115 30.545 44.725-.156 85.827 0h85.43v85.053c-.494 47.823-38.168 85.563-85.43 85.053z"/><path style="fill:#fff;stroke:none;stroke-width:1.18750358px;stroke-linecap:butt;stroke-linejoin:miter;stroke-opacity:1" d="M19.436 29.319v83.55H34.13l.42-57.94c2.027-17.336 16.278-30.15 17.634-2.099v60.458h14.694l.42-55.759c4.034-30.681 17.998-13.027 17.634-3.02l.097 59.593c4.284 36.749 35.674 45.719 64.998 27.292 2.573-2.06 1.99-.606 4.465-5.637l-5.324-10.293c-62.484 35.31-64.075-61.575-12.176-42.825v14.695h14.695v-25.61c-16.812-5.127-33.348-12.785-52.06-.42l.419-28.13c-1.564-20.915-21.216-26.117-35.687-9.237-17.321-21.94-30.802-3.131-31.98-.123l-2.027-8.274h-7.558z"/></svg>